<?xml version="1.0" encoding="UTF-8"?>
<svg xmlns="http://www.w3.org/2000/svg" xmlns:xlink="http://www.w3.org/1999/xlink" width="74" height="85" viewBox="0 0 74 85">
<path fill="none" stroke-width="0.01494" stroke-linecap="butt" stroke-linejoin="miter" stroke="rgb(0%, 0%, 0%)" stroke-opacity="1" stroke-miterlimit="10" d="M -0.000048828 0.495703 L -0.000048828 1.504297 " transform="matrix(40, 0, 0, 40, 2.357422, 2.5)"/>
<path fill="none" stroke-width="0.01494" stroke-linecap="butt" stroke-linejoin="miter" stroke="rgb(0%, 0%, 0%)" stroke-opacity="1" stroke-miterlimit="10" d="M 0.150049 0.582324 L 0.150049 1.417676 " transform="matrix(40, 0, 0, 40, 2.357422, 2.5)"/>
<path fill="none" stroke-width="0.01494" stroke-linecap="butt" stroke-linejoin="miter" stroke="rgb(0%, 0%, 0%)" stroke-opacity="1" stroke-miterlimit="10" d="M -0.00375977 1.497852 L 0.869775 2.002148 " transform="matrix(40, 0, 0, 40, 2.357422, 2.5)"/>
<path fill="none" stroke-width="0.01494" stroke-linecap="butt" stroke-linejoin="miter" stroke="rgb(0%, 0%, 0%)" stroke-opacity="1" stroke-miterlimit="10" d="M 0.862256 2.002148 L 1.735791 1.497852 " transform="matrix(40, 0, 0, 40, 2.357422, 2.5)"/>
<path fill="none" stroke-width="0.01494" stroke-linecap="butt" stroke-linejoin="miter" stroke="rgb(0%, 0%, 0%)" stroke-opacity="1" stroke-miterlimit="10" d="M 0.862256 1.828906 L 1.585791 1.41123 " transform="matrix(40, 0, 0, 40, 2.357422, 2.5)"/>
<path fill="none" stroke-width="0.01494" stroke-linecap="butt" stroke-linejoin="miter" stroke="rgb(0%, 0%, 0%)" stroke-opacity="1" stroke-miterlimit="10" d="M 1.73208 1.504297 L 1.73208 0.495703 " transform="matrix(40, 0, 0, 40, 2.357422, 2.5)"/>
<path fill="none" stroke-width="0.01494" stroke-linecap="butt" stroke-linejoin="miter" stroke="rgb(0%, 0%, 0%)" stroke-opacity="1" stroke-miterlimit="10" d="M 1.735791 0.502148 L 0.862256 -0.00214844 " transform="matrix(40, 0, 0, 40, 2.357422, 2.5)"/>
<path fill="none" stroke-width="0.01494" stroke-linecap="butt" stroke-linejoin="miter" stroke="rgb(0%, 0%, 0%)" stroke-opacity="1" stroke-miterlimit="10" d="M 1.585791 0.58877 L 0.862256 0.171094 " transform="matrix(40, 0, 0, 40, 2.357422, 2.5)"/>
<path fill="none" stroke-width="0.01494" stroke-linecap="butt" stroke-linejoin="miter" stroke="rgb(0%, 0%, 0%)" stroke-opacity="1" stroke-miterlimit="10" d="M -0.00375977 0.502148 L 0.869775 -0.00214844 " transform="matrix(40, 0, 0, 40, 2.357422, 2.5)"/>
</svg>
